<?xml version="1.0" encoding="utf-8"?>
<!-- Generator: Adobe Illustrator 17.0.0, SVG Export Plug-In . SVG Version: 6.00 Build 0)  -->
<!DOCTYPE svg PUBLIC "-//W3C//DTD SVG 1.1//EN" "http://www.w3.org/Graphics/SVG/1.1/DTD/svg11.dtd">
<svg version="1.1" id="Layer_1" xmlns="http://www.w3.org/2000/svg" xmlns:xlink="http://www.w3.org/1999/xlink" x="0px" y="0px"
	 width="65px" height="65px" viewBox="0 0 65 65" enable-background="new 0 0 65 65" xml:space="preserve">
<path fill-rule="evenodd" clip-rule="evenodd" fill="#FFFFFF" d="M32.5,65C14.551,65,0,50.449,0,32.5C0,14.551,14.551,0,32.5,0
	S65,14.551,65,32.5C65,50.449,50.449,65,32.5,65z M45.68,7.96v24.331h-0.025c0.004,0.13,0.02,0.258,0.02,0.389
	c0,7.177-5.818,12.994-12.994,12.994c-6.764,0-12.314-5.171-12.93-11.774c-0.039-0.022-0.061-0.034-0.061-0.034
	s-0.036-2.801,0.788-6.301c0.748-3.18,2.363-7.088,2.363-7.088s0.788-0.788,1.575,0c1.575,10.238,4.725,10.238,4.725,10.238
	l-0.025,0.075c0.469,0.157,0.812,0.585,0.812,1.107c0,0.653-0.529,1.181-1.181,1.181c-0.131,0-0.251-0.035-0.369-0.075l-0.025,0.075
	c0,0-3.15-0.788-3.15,1.575c0,0.269-0.079,0.458-0.205,0.597c1.171,2.879,3.991,4.913,7.291,4.913c3.809,0,6.986-2.704,7.717-6.297
	h0.162V22.07v-4.744V5.742c-2.435-0.695-4.996-1.09-7.654-1.09c-15.387,0-27.861,12.474-27.861,27.861s12.474,27.861,27.861,27.861
	c15.387,0,27.861-12.474,27.861-27.861C60.373,21.889,54.425,12.66,45.68,7.96z M19.69,32.602v0.156
	c0-0.026-0.004-0.052-0.004-0.078C19.686,32.654,19.689,32.628,19.69,32.602z"/>
<path fill-rule="evenodd" clip-rule="evenodd" fill="#0C3146" d="M32.56,45.674c-6.027,0-11.079-4.109-12.547-9.674h5.236
	c1.328,2.472,3.917,4.163,6.919,4.163c3.002,0,5.591-1.692,6.92-4.163h6.022C43.641,41.565,38.587,45.674,32.56,45.674z M0.07,36
	h4.703c1.719,13.737,13.416,24.373,27.619,24.373c14.203,0,25.9-10.636,27.619-24.373h4.678c-1.746,16.303-15.543,29-32.31,29
	C15.614,65,1.816,52.303,0.07,36z"/>
</svg>
