<?xml version="1.0" encoding="utf-8"?>
<!-- Generator: Adobe Illustrator 17.0.0, SVG Export Plug-In . SVG Version: 6.00 Build 0)  -->
<!DOCTYPE svg PUBLIC "-//W3C//DTD SVG 1.1//EN" "http://www.w3.org/Graphics/SVG/1.1/DTD/svg11.dtd">
<svg version="1.1" id="Layer_1" xmlns="http://www.w3.org/2000/svg" xmlns:xlink="http://www.w3.org/1999/xlink" x="0px" y="0px"
	 width="320.995px" height="249px" viewBox="0 0 320.995 249" enable-background="new 0 0 320.995 249" xml:space="preserve">
<g>
	<g>
		<path fill-rule="evenodd" clip-rule="evenodd" fill="#0C3146" d="M320.995,125.177c0-19.473-15.267-35.375-34.472-36.369v-0.27
			c0,0-19.409,0.2-34.223-8.114c-9.291-5.214-16.796-13.735-21.132-19.415C209.46,24.633,169.75,0.27,124.35,0.27
			C55.674,0.27,0,56.011,0,124.77s55.674,124.5,124.35,124.5c43.851,0,82.396-22.727,104.537-57.056
			c3.574-5.113,12.19-16.235,23.413-22.533c14.814-8.314,34.223-8.114,34.223-8.114v-0.021
			C305.728,160.552,320.995,144.649,320.995,125.177z"/>
	</g>
</g>
<path opacity="0.3" fill-rule="evenodd" clip-rule="evenodd" fill="none" stroke="#FFFFFF" stroke-width="3" stroke-miterlimit="10" d="
	M284.145,97.51c14.91,0,26.996,12.091,26.996,27.007c0,14.915-12.087,27.007-26.996,27.007c-14.91,0-26.996-12.091-26.996-27.007
	C257.149,109.602,269.235,97.51,284.145,97.51z"/>
<path opacity="0.3" fill-rule="evenodd" clip-rule="evenodd" fill="#FFFFFF" d="M295.717,122.031l-11.572,11.204
	c-1.37,1.326-3.59,1.326-4.96,0l-6.613-6.402c-1.37-1.326-1.37-3.476,0-4.802c1.37-1.326,3.59-1.326,4.959,0l4.133,4.001
	l9.092-8.803c1.369-1.326,3.59-1.326,4.959,0C297.087,118.556,297.087,120.706,295.717,122.031z"/>
</svg>
