<?xml version="1.0" encoding="utf-8"?>
<!-- Generator: Adobe Illustrator 17.0.0, SVG Export Plug-In . SVG Version: 6.00 Build 0)  -->
<!DOCTYPE svg PUBLIC "-//W3C//DTD SVG 1.1//EN" "http://www.w3.org/Graphics/SVG/1.1/DTD/svg11.dtd">
<svg version="1.1" xmlns="http://www.w3.org/2000/svg" xmlns:xlink="http://www.w3.org/1999/xlink" x="0px" y="0px"
	 width="320.995px" height="249px" viewBox="0 0 320.995 249" enable-background="new 0 0 320.995 249" xml:space="preserve">
<g id="Layer_2">
	<g>
		<g>
			<path fill-rule="evenodd" clip-rule="evenodd" fill="#0C3146" d="M196.645,0c-45.399,0-85.11,24.363-106.818,60.738
				c-4.336,5.68-11.841,14.201-21.132,19.415c-10.951,6.146-24.405,7.638-30.681,7.999c-0.49-0.02-0.981-0.037-1.476-0.037
				C16.359,88.115,0,104.491,0,124.692c0,19.506,15.254,35.443,34.472,36.516v0.088c0,0,19.409-0.199,34.223,8.114
				c11.223,6.298,19.839,17.42,23.412,22.533C114.248,226.272,152.794,249,196.645,249c68.677,0,124.35-55.741,124.35-124.5
				S265.321,0,196.645,0z"/>
		</g>
	</g>
</g>
<g id="Layer_3">
	
		<path opacity="0.3" fill-rule="evenodd" clip-rule="evenodd" fill="none" stroke="#FFFFFF" stroke-width="3" stroke-miterlimit="10" d="
		M37.196,97.51c14.91,0,26.996,12.091,26.996,27.007c0,14.915-12.087,27.007-26.996,27.007c-14.91,0-26.996-12.091-26.996-27.007
		C10.199,109.602,22.286,97.51,37.196,97.51z"/>
	<path fill-rule="evenodd" clip-rule="evenodd" fill="#FFFFFF" d="M48.768,122.031l-11.572,11.204c-1.369,1.326-3.59,1.326-4.959,0
		l-6.613-6.402c-1.37-1.326-1.37-3.476,0-4.802c1.37-1.326,3.59-1.326,4.959,0l4.133,4.001l9.092-8.803
		c1.37-1.326,3.59-1.326,4.959,0C50.138,118.556,50.138,120.706,48.768,122.031z"/>
</g>
</svg>
